<svg width="51" height="51" xmlns="http://www.w3.org/2000/svg">

 <g>
  <title>background</title>
  <rect fill="none" id="canvas_background" height="602" width="802" y="-1" x="-1"/>
 </g>
 <g>
  <title>Layer 1</title>
  <g id="background">
   <rect id="svg_1" fill="white" height="51" width="51"/>
  </g>
  <g id="grid">
   <line id="svg_2" stroke="#ddd" y2="0.5" x2="50.5" y1="0.5" x1="0.5"/>
   <line id="svg_3" stroke="#ddd" y2="10.5" x2="50.5" y1="10.5" x1="0.5"/>
   <line id="svg_4" stroke="#ddd" y2="20.5" x2="50.5" y1="20.5" x1="0.5"/>
   <line id="svg_5" stroke="#ddd" y2="30.5" x2="50.5" y1="30.5" x1="0.5"/>
   <line id="svg_6" stroke="#ddd" y2="40.5" x2="50.5" y1="40.5" x1="0.5"/>
   <line id="svg_7" stroke="#ddd" y2="50.5" x2="50.5" y1="50.5" x1="0.5"/>
   <line id="svg_8" stroke="#ddd" y2="50.5" x2="0.5" y1="0.5" x1="0.5"/>
   <line id="svg_9" stroke="#ddd" y2="50.5" x2="10.5" y1="0.5" x1="10.5"/>
   <line id="svg_10" stroke="#ddd" y2="50.5" x2="20.5" y1="0.5" x1="20.5"/>
   <line id="svg_11" stroke="#ddd" y2="50.5" x2="30.5" y1="0.5" x1="30.5"/>
   <line id="svg_12" stroke="#ddd" y2="50.5" x2="40.5" y1="0.5" x1="40.5"/>
   <line id="svg_13" stroke="#ddd" y2="50.5" x2="50.5" y1="0.5" x1="50.5"/>
  </g>
  <g fill-opacity="0.5" id="polygon">
   <path id="svg_14" fill="#333333" fill-opacity="0.2" stroke="#333333" d="m30.5,40.5l10,-30l-20,0l-10,20l20,10z"/>
  </g>
  <g id="vertices">
   <rect x="28.5" y="38.5" fill="#666666" stroke="#333333" height="4" width="4" id="point 1/5"/>
   <rect x="38.5" y="8.5" fill="white" stroke="#333333" height="4" width="4" id="point 2"/>
   <rect x="18.5" y="8.5" fill="white" stroke="#333333" height="4" width="4" id="point 3"/>
   <rect x="8.5" y="28.5" fill="white" stroke="#333333" height="4" width="4" id="point 4"/>
  </g>
 </g>
</svg>